<?xml version="1.0" encoding="UTF-8" standalone="no"?>
<!-- Created with Inkscape (http://www.inkscape.org/) -->

<svg
   version="1.1"
   id="svg1"
   width="2267.72"
   height="971.67999"
   viewBox="0 0 2267.72 971.67999"
   sodipodi:docname="sergio logo.eps"
   xmlns:inkscape="http://www.inkscape.org/namespaces/inkscape"
   xmlns:sodipodi="http://sodipodi.sourceforge.net/DTD/sodipodi-0.dtd"
   xmlns="http://www.w3.org/2000/svg"
   xmlns:svg="http://www.w3.org/2000/svg">
  <defs
     id="defs1" />
  <sodipodi:namedview
     id="namedview1"
     pagecolor="#ffffff"
     bordercolor="#000000"
     borderopacity="0.25"
     inkscape:showpageshadow="2"
     inkscape:pageopacity="0.0"
     inkscape:pagecheckerboard="0"
     inkscape:deskcolor="#d1d1d1">
    <inkscape:page
       x="0"
       y="0"
       inkscape:label="1"
       id="page1"
       width="2267.72"
       height="971.67999"
       margin="0"
       bleed="0" />
  </sodipodi:namedview>
  <g
     id="g1"
     inkscape:groupmode="layer"
     inkscape:label="1">
    <g
       id="group-R5">
      <path
         id="path2"
         d="m 2562.36,1280.21 c 217.37,0 334.71,-81.36 334.71,-244.05 0,-182.672 -110.67,-292.019 -382.71,-292.019 h -830.78 l 177.35,229.347 h 674.79 c 65.29,0 94.68,18.684 94.68,65.352 0,45.35 -29.39,64.01 -94.68,64.01 h -485.43 c -229.36,0 -334.71,102.68 -334.71,256.03 0,168.03 112.05,277.37 382.71,277.37 h 774.79 L 2695.7,1404.21 h -618.73 c -64.03,0 -94.65,-15.99 -94.65,-61.34 0,-45.32 30.62,-62.66 94.65,-62.66 h 485.39"
         style="fill:#040606;fill-opacity:1;fill-rule:nonzero;stroke:none"
         transform="matrix(0.13333333,0,0,-0.13333333,0,971.68)" />
      <path
         id="path3"
         d="m 4145.28,744.141 h -417.42 l -269.35,234.691 c -92.01,80.008 -134.68,118.678 -165.34,149.348 1.31,-41.35 3.98,-85.34 3.98,-128.01 V 744.141 h -277.38 v 892.109 h 277.38 v -206.7 c 0,-54.67 -2.67,-109.34 -5.32,-156.01 34.64,32.01 82.67,77.34 164,145.35 l 257.4,217.36 h 400.02 l -341.38,-256.03 c -118.65,-89.35 -173.33,-129.36 -230.7,-164.03 50.67,-34.67 120.02,-84.01 234.72,-177.35 l 369.39,-294.699"
         style="fill:#040606;fill-opacity:1;fill-rule:nonzero;stroke:none"
         transform="matrix(0.13333333,0,0,-0.13333333,0,971.68)" />
      <path
         id="path4"
         d="m 4613.36,744.141 166.71,229.347 h 224 c 53.35,0 116,0 158.71,-2.656 -24.03,31.998 -61.38,86.688 -90.7,129.358 l -160.01,236.02 -418.72,-592.069 h -326.69 l 572.07,806.769 c 37.32,52.01 92.01,100 178.66,100 82.67,0 137.35,-44 176.04,-100 L 5650.81,744.141 H 4613.36"
         style="fill:#040606;fill-opacity:1;fill-rule:nonzero;stroke:none"
         transform="matrix(0.13333333,0,0,-0.13333333,0,971.68)" />
      <path
         id="path5"
         d="m 6346.95,744.141 h -597.41 v 556.049 h 277.39 V 973.488 h 320.02 c 153.36,0 264.04,85.352 264.04,213.362 0,125.36 -114.7,217.36 -264.04,217.36 h -597.41 l 176.05,232.04 h 421.36 c 312.06,0 537.41,-180.03 537.41,-437.4 0,-258.69 -228.02,-454.709 -537.41,-454.709"
         style="fill:#040606;fill-opacity:1;fill-rule:nonzero;stroke:none"
         transform="matrix(0.13333333,0,0,-0.13333333,0,971.68)" />
      <path
         id="path6"
         d="M 8060.56,973.488 7883.18,744.141 h -858.76 v 892.109 h 1033.47 l -178.72,-232.04 h -577.4 v -106.66 h 706.75 l -158.67,-202.7 H 7301.77 V 973.488 h 758.79"
         style="fill:#040606;fill-opacity:1;fill-rule:nonzero;stroke:none"
         transform="matrix(0.13333333,0,0,-0.13333333,0,971.68)" />
      <path
         id="path7"
         d="M 9290.06,973.488 9112.71,744.141 h -448.07 c -309.39,0 -537.41,196.019 -537.41,454.709 0,261.37 228.02,437.4 537.41,437.4 h 625.42 l -177.35,-232.04 h -448.07 c -149.34,0 -261.39,-89.34 -261.39,-217.36 0,-126.67 110.68,-213.362 261.39,-213.362 h 625.42"
         style="fill:#040606;fill-opacity:1;fill-rule:nonzero;stroke:none"
         transform="matrix(0.13333333,0,0,-0.13333333,0,971.68)" />
      <path
         id="path8"
         d="m 10422.3,973.488 -177.4,-229.347 h -858.79 v 892.109 h 1033.49 l -178.7,-232.04 h -577.44 v -106.66 h 706.74 l -158.7,-202.7 H 9663.46 V 973.488 h 758.84"
         style="fill:#040606;fill-opacity:1;fill-rule:nonzero;stroke:none"
         transform="matrix(0.13333333,0,0,-0.13333333,0,971.68)" />
      <path
         id="path9"
         d="M 11310.4,777.469 10763.6,1268.2 V 744.141 h -250.7 v 740.099 c 0,118.68 72,166.67 150.7,166.67 33.4,0 66.7,-8 110.7,-47.99 l 546.7,-490.73 v 524.06 h 252.1 V 897.492 c 0,-118.683 -72.1,-168.031 -152,-168.031 -34.7,0 -68.1,8 -110.7,48.008"
         style="fill:#040606;fill-opacity:1;fill-rule:nonzero;stroke:none"
         transform="matrix(0.13333333,0,0,-0.13333333,0,971.68)" />
      <path
         id="path10"
         d="m 12843.9,1636.25 -178.7,-232.04 h -318.7 V 744.141 h -276 v 660.069 h -418.8 l 178.8,232.04 h 1013.4"
         style="fill:#040606;fill-opacity:1;fill-rule:nonzero;stroke:none"
         transform="matrix(0.13333333,0,0,-0.13333333,0,971.68)" />
      <path
         id="path11"
         d="M 13964.1,973.488 13786.7,744.141 H 12928 v 892.109 h 1033.4 l -178.7,-232.04 h -577.4 v -106.66 h 706.8 l -158.7,-202.7 h -548.1 V 973.488 h 758.8"
         style="fill:#040606;fill-opacity:1;fill-rule:nonzero;stroke:none"
         transform="matrix(0.13333333,0,0,-0.13333333,0,971.68)" />
      <path
         id="path12"
         d="m 15324.3,744.141 h -369.4 l -198.7,236.031 h -424 V 744.141 h -276.1 v 456.049 h 776.1 c 85.4,0 152,38.67 152,100 0,69.35 -57.3,104.02 -152,104.02 h -776.1 l 180.1,232.04 h 573.4 c 202.6,0 458.7,-64.01 458.7,-318.72 0,-138.68 -86.7,-253.35 -233.4,-282.69 30.7,-22.67 64.1,-54.668 125.4,-117.36 l 164,-173.339"
         style="fill:#040606;fill-opacity:1;fill-rule:nonzero;stroke:none"
         transform="matrix(0.13333333,0,0,-0.13333333,0,971.68)" />
      <path
         id="path13"
         d="m 2528.74,3723.09 c 208.29,0 385.8,-67.72 532.34,-203.35 147.58,-135.63 221.31,-298.63 221.31,-489.01 0,-190.49 -73.73,-352.88 -221.31,-487.47 -147.45,-135.63 -324.93,-203.39 -532.34,-203.39 H 919.699 l 106.191,617.59 h 1502.85 c 37.83,0 70.86,9 98.69,26.91 24.96,16 37.37,31.43 37.37,46.36 0,14.97 -12.41,30.36 -37.37,46.36 -27.83,17.95 -60.86,26.91 -98.69,26.91 h -973.49 c -207.41,0 -384.77,67.76 -532.35,203.39 -147.455,135.63 -221.298,298.48 -221.298,488.97 0,190.37 73.843,352.92 221.298,487.51 147.58,135.48 324.94,203.36 532.35,203.36 h 1532.44 l -106.15,-617.6 H 1555.25 c -37.82,0 -70.75,-8.96 -98.69,-26.91 -24.85,-16 -37.4,-31.39 -37.4,-46.36 0,-14.93 12.55,-30.36 37.4,-46.36 27.94,-17.91 60.87,-26.91 98.69,-26.91 h 973.49"
         style="fill:#040606;fill-opacity:1;fill-rule:nonzero;stroke:none"
         transform="matrix(0.13333333,0,0,-0.13333333,0,971.68)" />
      <path
         id="path14"
         d="m 5932.19,4487.23 -89.12,-617.6 H 4457.74 v -200.36 h 1232.21 l -53.83,-511.41 H 4457.74 v -200.4 h 1447.54 l 106.15,-617.59 H 3840.19 v 2147.36 h 2092"
         style="fill:#040606;fill-opacity:1;fill-rule:nonzero;stroke:none"
         transform="matrix(0.13333333,0,0,-0.13333333,0,971.68)" />
      <path
         id="path15"
         d="m 9026.1,2339.87 h -623.57 l -47.85,349.93 c -5.97,44.86 -29.44,85.25 -70.29,121.12 -40.81,34.83 -84.18,52.33 -130.08,52.33 H 7192.8 v -521.89 h -617.6 v 2145.87 h 1725.65 c 212.35,0 389.4,-76.26 530.85,-228.78 141.61,-153.58 203.81,-336.03 186.93,-547.3 l -10.45,-119.63 c -13.02,-168.56 -77.18,-318.96 -192.94,-451.61 81.81,-110.67 132.07,-232.83 151.06,-366.35 z m -623.57,1420.62 c 2.99,31.85 -4.94,57.88 -23.93,77.75 -18.83,20.94 -44.86,31.39 -77.75,31.39 H 7192.8 v -388.79 h 1028.81 c 40.96,0 78.79,16.47 113.62,49.35 34.87,31.85 54.28,68.79 58.34,110.67 l 8.96,119.63"
         style="fill:#040606;fill-opacity:1;fill-rule:nonzero;stroke:none"
         transform="matrix(0.13333333,0,0,-0.13333333,0,971.68)" />
      <path
         id="path16"
         d="m 11889.7,3669.27 v -1329.4 h -1609 c -207.2,0 -384.74,73.73 -532.35,221.34 -147.42,147.57 -221.3,324.94 -221.3,532.34 v 640.03 c 0,207.41 73.88,384.73 221.3,532.34 147.61,147.46 325.15,221.31 532.35,221.31 h 1529.8 l -242.3,-617.6 h -1287.5 c -36.8,0 -68.8,-13.44 -95.7,-40.35 -26.9,-26.91 -40.4,-58.76 -40.4,-95.7 v -640.03 c 0,-36.94 13.5,-68.79 40.4,-95.7 26.9,-26.91 58.9,-40.39 95.7,-40.39 h 1099.1 v 200.4 H 11169 v 511.41 h 720.7"
         style="fill:#040606;fill-opacity:1;fill-rule:nonzero;stroke:none"
         transform="matrix(0.13333333,0,0,-0.13333333,0,971.68)" />
      <path
         id="path17"
         d="M 12480.4,4487.23 H 13098 V 2339.87 h -617.6 v 2147.36"
         style="fill:#040606;fill-opacity:1;fill-rule:nonzero;stroke:none"
         transform="matrix(0.13333333,0,0,-0.13333333,0,971.68)" />
      <path
         id="path18"
         d="m 14402.6,2339.87 c -207.4,0 -385,73.73 -532.4,221.34 -147.6,147.57 -221.3,324.94 -221.3,532.34 v 640.03 c 0,207.41 73.7,384.73 221.3,532.34 147.4,147.58 325,221.31 532.4,221.31 h 1050 c 207.2,0 384.8,-73.73 532.4,-221.31 147.4,-147.61 221.3,-324.93 221.3,-532.34 v -640.03 c 0,-207.4 -73.9,-384.77 -221.3,-532.34 -147.6,-147.61 -325.2,-221.34 -532.4,-221.34 z m 0,1529.76 c -37,0 -68.8,-13.44 -95.7,-40.35 -27,-26.91 -40.4,-58.76 -40.4,-95.7 v -640.03 c 0,-36.94 13.4,-68.79 40.4,-95.7 26.9,-26.91 58.7,-40.39 95.7,-40.39 h 1050 c 36.8,0 68.8,13.48 95.7,40.39 26.9,26.91 40.4,58.76 40.4,95.7 v 640.03 c 0,36.94 -13.5,68.79 -40.4,95.7 -26.9,26.91 -58.9,40.35 -95.7,40.35 h -1050"
         style="fill:#040606;fill-opacity:1;fill-rule:nonzero;stroke:none"
         transform="matrix(0.13333333,0,0,-0.13333333,0,971.68)" />
      <path
         id="path19"
         d="m 898.508,5018.04 966.532,36.48 2383.68,942.96 c 0,0 1602.36,829.64 4229.56,784.07 L 10523.5,6067.44 13170,5736.83 c 0,0 1750.5,-239.36 2939.4,-918.03 0,0 -3131.1,1160.37 -5953.2,820.86 L 8366.81,6471.8 c 0,0 -2664.41,222.33 -4452.44,-1091.69 l -852.78,-64.21 -1103.16,-404.19 -1055.012,-23.7 -4.91,130.03"
         style="fill:#040606;fill-opacity:1;fill-rule:nonzero;stroke:none"
         transform="matrix(0.13333333,0,0,-0.13333333,0,971.68)" />
      <path
         id="path20"
         d="M 952.504,7053.6 C 552.422,7053.6 226.93,6717.93 226.93,6305.33 V 982.301 c 0,-412.59 325.492,-748.27 725.574,-748.27 H 16055.4 c 400.1,0 725.5,335.68 725.5,748.27 V 6305.33 c 0,412.6 -325.4,748.27 -725.5,748.27 z M 16055.4,0 H 952.504 C 427.289,0 0,440.66 0,982.301 V 6305.33 c 0,541.64 427.289,982.3 952.504,982.3 H 16055.4 c 525.2,0 952.5,-440.66 952.5,-982.3 V 982.301 C 17007.9,440.66 16580.6,0 16055.4,0"
         style="fill:#040606;fill-opacity:1;fill-rule:nonzero;stroke:none"
         transform="matrix(0.13333333,0,0,-0.13333333,0,971.68)" />
    </g>
  </g>
</svg>
